<svg width="30" height="29" viewBox="0 0 30 29" fill="none" xmlns="http://www.w3.org/2000/svg">        <g clip-path="url(#clip0_938_58)">        <path fill-rule="evenodd" clip-rule="evenodd" d="M20 12.5012C20 16.9195 16.4183 20.5012 12 20.5012C7.58172 20.5012 4 16.9195 4 12.5012C4 8.08294 7.58172 4.50122 12 4.50122C16.4183 4.50122 20 8.08294 20 12.5012ZM20.0607 21.391C17.9305 23.3236 15.1028 24.5012 12 24.5012C5.37258 24.5012 0 19.1286 0 12.5012C0 5.8738 5.37258 0.501221 12 0.501221C18.6274 0.501221 24 5.8738 24 12.5012C24 14.5733 23.4748 16.5228 22.5503 18.2237L29.4107 25.0842C30.1917 25.8652 30.1919 27.1317 29.411 27.9129C28.6302 28.6942 27.364 28.6943 26.583 27.9133L20.0607 21.391Z" fill="#f3f3f3"/>        </g>        <defs>        <clipPath id="clip0_938_58">        <rect width="29.9966" height="27.9977" fill="#f3f3f3" transform="translate(0 0.501221)"/>        </clipPath>        </defs>        </svg>